<svg xmlns="http://www.w3.org/2000/svg" version="1.1" xmlns:xlink="http://www.w3.org/1999/xlink" xmlns:svgjs="http://svgjs.dev/svgjs" width="2000" height="1598" viewBox="0 0 2000 1598"><g transform="matrix(1,0,0,1,1.1191397849460145,0.6469635627529442)"><svg viewBox="0 0 309 247" data-background-color="#ffffff" preserveAspectRatio="xMidYMid meet" height="1598" width="2000" xmlns="http://www.w3.org/2000/svg" xmlns:xlink="http://www.w3.org/1999/xlink"><g id="tight-bounds" transform="matrix(1,0,0,1,-0.1729070967741677,-0.09999999999999432)"><svg viewBox="0 0 309.34581419354834 247.2" height="247.2" width="309.34581419354834"><g><svg viewBox="0 0 309.34581419354834 247.2" height="247.2" width="309.34581419354834"><g><svg viewBox="0 0 309.34581419354834 247.2" height="247.2" width="309.34581419354834"><g id="textblocktransform"><svg viewBox="0 0 309.34581419354834 247.2" height="247.2" width="309.34581419354834" id="textblock"><g><svg viewBox="0 0 309.34581419354834 247.2" height="247.2" width="309.34581419354834"><rect width="309.34581419354834" height="247.2" x="0" y="0" opacity="1" fill="#624cf5" data-fill-palette-color="tertiary"></rect><g transform="matrix(1,0,0,1,23.607599999999998,23.607599999999998)"><svg width="262.13061419354835" viewBox="4.17 -32.29 42.32 32.29" height="199.9848" data-palette-color="#ffffff"><path d="M9.38 0L4.17 0 4.17-31.25 9.38-31.25 9.38 0ZM22.19 0L17.39 0 17.39-32.29 32.08-13.06 46.49-32.29 46.49 0 41.49 0 41.49-11.7Q41.49-13.19 41.54-14.98 41.59-16.77 41.84-19.1L41.84-19.1Q40.76-17.22 39.75-15.85 38.75-14.48 37.91-13.3L37.91-13.3 31.98-5.1 25.83-13.3Q25-14.44 23.96-15.9 22.91-17.36 21.87-19.13L21.87-19.13Q22.12-16.81 22.15-15 22.19-13.19 22.19-11.7L22.19-11.7 22.19 0Z" opacity="1" transform="matrix(1,0,0,1,0,0)" fill="#ffffff" class="wordmark-text-0" data-fill-palette-color="quaternary" id="text-0"></path></svg></g></svg></g></svg></g></svg></g></svg></g><defs></defs></svg><rect width="309.34581419354834" height="247.2" fill="none" stroke="none" visibility="hidden"></rect></g></svg></g></svg>