<svg xmlns="http://www.w3.org/2000/svg" version="1.1" xmlns:xlink="http://www.w3.org/1999/xlink" xmlns:svgjs="http://svgjs.dev/svgjs" width="2000" height="550" viewBox="0 0 2000 550"><g transform="matrix(1,0,0,1,-1.2121212121212466,-0.27461137125789037)"><svg viewBox="0 0 396 109" data-background-color="#ffffff" preserveAspectRatio="xMidYMid meet" height="550" width="2000" xmlns="http://www.w3.org/2000/svg" xmlns:xlink="http://www.w3.org/1999/xlink"><g id="tight-bounds" transform="matrix(1,0,0,1,0.2400000000000091,0.054422980849295755)"><svg viewBox="0 0 395.52 108.89115403830141" height="108.89115403830141" width="395.52"><g><svg viewBox="0 0 395.52 108.89115403830141" height="108.89115403830141" width="395.52"><g><svg viewBox="0 0 395.52 108.89115403830141" height="108.89115403830141" width="395.52"><g id="textblocktransform"><svg viewBox="0 0 395.52 108.89115403830141" height="108.89115403830141" width="395.52" id="textblock"><g><svg viewBox="0 0 395.52 108.89115403830141" height="108.89115403830141" width="395.52"><rect width="395.52" height="108.89115403830141" x="0" y="0" opacity="1" fill="#624cf5" data-fill-palette-color="tertiary"></rect><g transform="matrix(1,0,0,1,23.607599999999998,23.607599999999994)"><svg width="348.3048" viewBox="4.17 -33.33 250.18 44.3" height="61.67595403830142" data-palette-color="#ffffff"><path d="M9.38 0L4.17 0 4.17-31.25 9.38-31.25 9.38 0ZM21.25 0L16.35 0 16.35-20.83 20.8-20.83 20.8-18.19Q21.94-19.79 23.64-20.59 25.34-21.39 27.22-21.39L27.22-21.39Q29.2-21.39 30.9-20.52 32.6-19.65 33.68-18.02L33.68-18.02Q34.89-19.69 36.77-20.54 38.64-21.39 40.76-21.39L40.76-21.39Q43.05-21.39 45.01-20.33 46.98-19.27 48.16-17.29 49.34-15.31 49.34-12.53L49.34-12.53 49.34 0 44.44 0 44.44-11.88Q44.44-14.13 43.16-15.52 41.87-16.91 39.89-16.91L39.89-16.91Q38.75-16.91 37.69-16.37 36.63-15.83 35.97-14.76 35.31-13.68 35.31-11.98L35.31-11.98 35.31 0 30.41 0 30.41-11.88Q30.41-13.44 29.81-14.57 29.2-15.69 28.16-16.3 27.12-16.91 25.83-16.91L25.83-16.91Q24.72-16.91 23.66-16.39 22.6-15.87 21.92-14.77 21.25-13.68 21.25-11.98L21.25-11.98 21.25 0ZM63.71 0.42L63.71 0.42Q60.83 0.42 58.47-1.06 56.11-2.53 54.7-4.98 53.29-7.43 53.29-10.42L53.29-10.42Q53.29-13.4 54.7-15.87 56.11-18.33 58.47-19.79 60.83-21.25 63.71-21.25L63.71-21.25Q65.79-21.25 67.56-20.5 69.34-19.76 70.62-18.4L70.62-18.4 70.62-20.83 74.96-20.83 74.96 0 70.62 0 70.62-2.43Q69.34-1.11 67.56-0.35 65.79 0.42 63.71 0.42ZM64.3-3.96L64.3-3.96Q66.07-3.96 67.5-4.83 68.92-5.69 69.77-7.15 70.62-8.61 70.62-10.42L70.62-10.42Q70.62-12.22 69.77-13.68 68.92-15.14 67.5-16.02 66.07-16.91 64.3-16.91L64.3-16.91Q62.56-16.91 61.12-16.02 59.68-15.14 58.83-13.68 57.98-12.22 57.98-10.42L57.98-10.42Q57.98-8.65 58.83-7.17 59.68-5.69 61.11-4.83 62.53-3.96 64.3-3.96ZM89.37 10.97L89.37 10.97Q86.94 10.97 84.85 10.26 82.77 9.55 81.21 8.33L81.21 8.33 82.46 3.23Q83.53 4.72 85.31 5.68 87.08 6.63 89.33 6.63L89.33 6.63Q92.7 6.63 94.66 4.67 96.62 2.71 96.62-0.42L96.62-0.42 96.62-2.4Q95.34-1.11 93.57-0.35 91.8 0.42 89.75 0.42L89.75 0.42Q86.87 0.42 84.51-1.06 82.15-2.53 80.74-4.98 79.33-7.43 79.33-10.42L79.33-10.42Q79.33-13.4 80.74-15.87 82.15-18.33 84.51-19.79 86.87-21.25 89.75-21.25L89.75-21.25Q91.83-21.25 93.6-20.5 95.37-19.76 96.66-18.4L96.66-18.4 96.66-20.83 101-20.83 101 0.14Q101 3.54 99.38 5.97 97.77 8.4 95.1 9.69 92.42 10.97 89.37 10.97ZM90.34-3.96L90.34-3.96Q92.11-3.96 93.53-4.83 94.96-5.69 95.81-7.15 96.66-8.61 96.66-10.42L96.66-10.42Q96.66-12.22 95.81-13.68 94.96-15.14 93.53-16.02 92.11-16.91 90.34-16.91L90.34-16.91Q88.6-16.91 87.16-16.02 85.72-15.14 84.87-13.68 84.02-12.22 84.02-10.42L84.02-10.42Q84.02-8.65 84.87-7.17 85.72-5.69 87.15-4.83 88.57-3.96 90.34-3.96ZM117 0.56L117 0.56Q113.6 0.56 110.98-0.9 108.36-2.36 106.87-4.9 105.37-7.43 105.37-10.63L105.37-10.63Q105.37-13.68 106.81-16.11 108.25-18.54 110.7-19.97 113.15-21.39 116.14-21.39L116.14-21.39Q119.12-21.39 121.54-20 123.95-18.61 125.35-16.23 126.76-13.85 126.76-10.83L126.76-10.83 126.76-9.03 113.6-9.03Q112.73-9.03 111.87-9.11 111-9.2 110.13-9.34L110.13-9.34Q110.55-6.91 112.44-5.31 114.33-3.72 117.07-3.72L117.07-3.72Q119.05-3.72 120.7-4.57 122.35-5.42 123.36-6.77L123.36-6.77 124.54-1.91Q123.01-0.73 121.07-0.09 119.12 0.56 117 0.56ZM110.02-12.43L110.02-12.43Q111.83-12.78 113.6-12.78L113.6-12.78 118.91-12.78Q119.78-12.78 120.58-12.71 121.38-12.64 122.14-12.53L122.14-12.53Q121.66-14.69 119.99-16.01 118.32-17.33 116.1-17.33L116.1-17.33Q113.88-17.33 112.21-15.94 110.55-14.55 110.02-12.43ZM136.76 0L131.97 0 131.97-32.29 146.65-13.06 161.06-32.29 161.06 0 156.06 0 156.06-11.7Q156.06-13.19 156.12-14.98 156.17-16.77 156.41-19.1L156.41-19.1Q155.33-17.22 154.33-15.85 153.32-14.48 152.49-13.3L152.49-13.3 146.55-5.1 140.4-13.3Q139.57-14.44 138.53-15.9 137.49-17.36 136.45-19.13L136.45-19.13Q136.69-16.81 136.72-15 136.76-13.19 136.76-11.7L136.76-11.7 136.76 0ZM177.59 0.56L177.59 0.56Q174.53 0.56 172-0.92 169.46-2.4 167.97-4.9 166.48-7.4 166.48-10.42L166.48-10.42Q166.48-13.47 167.97-15.95 169.46-18.44 172-19.91 174.53-21.39 177.59-21.39L177.59-21.39Q180.68-21.39 183.2-19.91 185.71-18.44 187.21-15.95 188.7-13.47 188.7-10.42L188.7-10.42Q188.7-7.4 187.21-4.9 185.71-2.4 183.2-0.92 180.68 0.56 177.59 0.56ZM177.59-3.92L177.59-3.92Q179.39-3.92 180.84-4.81 182.28-5.69 183.14-7.15 184.01-8.61 184.01-10.42L184.01-10.42Q184.01-12.22 183.14-13.68 182.28-15.14 180.82-16.02 179.36-16.91 177.59-16.91L177.59-16.91Q175.82-16.91 174.36-16.02 172.9-15.14 172.05-13.68 171.2-12.22 171.2-10.42L171.2-10.42Q171.2-8.61 172.05-7.15 172.9-5.69 174.34-4.81 175.78-3.92 177.59-3.92ZM197.97 0L193.07 0 193.07-20.83 197.52-20.83 197.52-17.15Q198.63-18.96 200.36-20 202.1-21.04 204.5-21.04L204.5-21.04 205.61-16.49Q204.95-16.7 204.11-16.7L204.11-16.7Q201.34-16.7 199.65-14.93 197.97-13.16 197.97-9.86L197.97-9.86 197.97 0ZM213.76 10.42L208.87 10.42 208.87-20.83 213.21-20.83 213.21-18.44Q214.53-19.76 216.3-20.5 218.07-21.25 220.12-21.25L220.12-21.25Q223-21.25 225.36-19.79 227.72-18.33 229.13-15.87 230.54-13.4 230.54-10.42L230.54-10.42Q230.54-7.43 229.13-4.98 227.72-2.53 225.36-1.06 223 0.42 220.12 0.42L220.12 0.42Q218.28 0.42 216.66-0.21 215.05-0.83 213.76-1.91L213.76-1.91 213.76 10.42ZM219.53-3.96L219.53-3.96Q221.3-3.96 222.72-4.83 224.15-5.69 225-7.15 225.85-8.61 225.85-10.42L225.85-10.42Q225.85-12.22 225-13.68 224.15-15.14 222.72-16.02 221.3-16.91 219.53-16.91L219.53-16.91Q217.79-16.91 216.35-16.02 214.91-15.14 214.06-13.68 213.21-12.22 213.21-10.42L213.21-10.42Q213.21-8.65 214.06-7.17 214.91-5.69 216.33-4.83 217.76-3.96 219.53-3.96ZM239.8 0L234.91 0 234.91-33.33 239.8-33.33 239.8-18.58Q240.95-19.97 242.55-20.68 244.14-21.39 245.95-21.39L245.95-21.39Q248.17-21.39 250.08-20.31 251.99-19.24 253.17-17.19 254.35-15.14 254.35-12.22L254.35-12.22 254.35 0 249.46 0 249.46-11.56Q249.46-13.68 248.21-15.3 246.96-16.91 244.63-16.91L244.63-16.91Q242.76-16.91 241.28-15.59 239.8-14.27 239.8-11.67L239.8-11.67 239.8 0Z" opacity="1" transform="matrix(1,0,0,1,0,0)" fill="#ffffff" class="wordmark-text-0" data-fill-palette-color="quaternary" id="text-0"></path></svg></g></svg></g></svg></g></svg></g></svg></g><defs></defs></svg><rect width="395.52" height="108.89115403830141" fill="none" stroke="none" visibility="hidden"></rect></g></svg></g></svg>